0
SECTION
2
HEADER
9
$INSUNITS
70
4
9
$ACADVER
1
AC1014
9
$HANDSEED
5
FFFF
0
ENDSEC
0
SECTION
2
TABLES
0
TABLE
2
VPORT
5
8
100
AcDbSymbolTable
0
ENDTAB
0
TABLE
2
LTYPE
5
5
100
AcDbSymbolTable
0
LTYPE
5
14
100
AcDbSymbolTableRecord
100
AcDbLinetypeTableRecord
2
BYBLOCK
70
0
0
LTYPE
5
15
100
AcDbSymbolTableRecord
100
AcDbLinetypeTableRecord
2
BYLAYER
70
0
0
ENDTAB
0
TABLE
2
LAYER
5
2
100
AcDbSymbolTable
70
2
0
LAYER
5
50
100
AcDbSymbolTableRecord
100
AcDbLayerTableRecord
2
0
70
0
6
CONTINUOUS
0
ENDTAB
0
TABLE
2
STYLE
5
3
100
AcDbSymbolTable
70
1
0
STYLE
5
11
100
AcDbSymbolTableRecord
100
AcDbTextStyleTableRecord
2
STANDARD
70
0
0
ENDTAB
0
TABLE
2
VIEW
5
6
100
AcDbSymbolTable
70
0
0
ENDTAB
0
TABLE
2
UCS
5
7
100
AcDbSymbolTable
70
0
0
ENDTAB
0
TABLE
2
APPID
5
9
100
AcDbSymbolTable
70
2
0
APPID
5
12
100
AcDbSymbolTableRecord
100
AcDbRegAppTableRecord
2
ACAD
70
0
0
ENDTAB
0
TABLE
2
DIMSTYLE
5
A
100
AcDbSymbolTable
70
1
0
ENDTAB
0
TABLE
2
BLOCK_RECORD
5
1
100
AcDbSymbolTable
70
1
0
BLOCK_RECORD
5
1F
100
AcDbSymbolTableRecord
100
AcDbBlockTableRecord
2
*MODEL_SPACE
0
BLOCK_RECORD
5
1B
100
AcDbSymbolTableRecord
100
AcDbBlockTableRecord
2
*PAPER_SPACE
0
ENDTAB
0
ENDSEC
0
SECTION
2
BLOCKS
0
BLOCK
5
20
100
AcDbEntity
100
AcDbBlockBegin
2
*MODEL_SPACE
0
ENDBLK
5
21
100
AcDbEntity
100
AcDbBlockEnd
0
BLOCK
5
1C
100
AcDbEntity
100
AcDbBlockBegin
2
*PAPER_SPACE
0
ENDBLK
5
1D
100
AcDbEntity
100
AcDbBlockEnd
0
ENDSEC
0
SECTION
2
ENTITIES
0
CIRCLE
5
100
100
AcDbEntity
8
0
100
AcDbCircle
10
-30.000155412355582
20
-0.017700170035594383
30
0
40
1.6000000000000014
0
CIRCLE
5
101
100
AcDbEntity
8
0
100
AcDbCircle
10
0.094587974174821579
20
30.000011519608599
30
0
40
1.6000000000000005
0
CIRCLE
5
102
100
AcDbEntity
8
0
100
AcDbCircle
10
-0.0165603585060996
20
-30.000156063194634
30
0
40
1.6000000000000005
0
ARC
5
103
100
AcDbEntity
8
0
100
AcDbCircle
10
0
20
0
30
0
40
29.5
100
AcDbArc
50
209.20478208545472
51
240.79521791454528
0
LINE
5
104
100
AcDbEntity
8
0
100
AcDbLine
10
-14.394009170484782
20
-25.75
30
0
11
-5.686734274010389
21
-25.749999999999996
31
0
0
LINE
5
105
100
AcDbEntity
8
0
100
AcDbLine
10
32.985033841349761
20
0.9937517220164509
30
0
11
25.750000000000007
21
5.1709004579144411
31
0
0
LINE
5
106
100
AcDbEntity
8
0
100
AcDbLine
10
32.984834631845601
20
-1.000342096384581
30
0
11
25.750000000000007
21
-5.1773758186230578
31
0
0
LINE
5
107
100
AcDbEntity
8
0
100
AcDbLine
10
0.99865073673694016
20
-32.984885882870941
30
0
11
5.1757140487687749
21
-25.749999999999996
31
0
0
LINE
5
108
100
AcDbEntity
8
0
100
AcDbLine
10
25.749999999999996
20
-14.394009170484825
30
0
11
25.750000000000007
21
-5.1773758186230578
31
0
0
LINE
5
109
100
AcDbEntity
8
0
100
AcDbLine
10
25.750000000000007
20
5.1709004579144411
30
0
11
25.750000000000007
21
14.394009170484752
31
0
0
LINE
5
110
100
AcDbEntity
8
0
100
AcDbLine
10
5.3041809415703556
20
25.75
30
0
11
14.394009170484782
21
25.75
31
0
0
LINE
5
111
100
AcDbEntity
8
0
100
AcDbLine
10
-32.966146960398596
20
-1.4943743123509559
30
0
11
-25.749999999999996
21
-5.6606187024488905
31
0
0
LINE
5
112
100
AcDbEntity
8
0
100
AcDbLine
10
-1.5211982228885756
20
-32.964920081302814
30
0
11
-5.686734274010389
21
-25.749999999999996
31
0
0
LINE
5
113
100
AcDbEntity
8
0
100
AcDbLine
10
-32.968146579609673
20
1.4495899783633237
30
0
11
-25.697250338004928
21
5.6474438807036531
31
0
0
LINE
5
114
100
AcDbEntity
8
0
100
AcDbLine
10
-0.95254444402772309
20
32.986249545562927
30
0
11
-5.1303950670826071
21
25.75
31
0
0
LINE
5
115
100
AcDbEntity
8
0
100
AcDbLine
10
-14.394009170484782
20
25.75
30
0
11
-5.1303950670826071
21
25.75
31
0
0
LINE
5
116
100
AcDbEntity
8
0
100
AcDbLine
10
-25.75
20
-14.394009170484786
30
0
11
-25.749999999999996
21
-5.6606187024488905
31
0
0
LINE
5
117
100
AcDbEntity
8
0
100
AcDbLine
10
-25.749999999999996
20
5.6169888491511362
30
0
11
-25.749999999999996
21
14.394009170484786
31
0
0
LWPOLYLINE
5
118
100
AcDbEntity
8
0
100
AcDbPolyline
90
8
70
1
43
0.0
10
13.55544171172596
20
-24.5
10
-13.555441711725953
20
-24.5
42
-0.14094109548243461
10
-24.5
20
-13.55544171172596
10
-24.5
20
13.555441711725953
42
-0.14094109548243461
10
-13.55544171172596
20
24.5
10
13.555441711725953
20
24.5
42
-0.14094109548243461
10
24.5
20
13.55544171172596
10
24.5
20
-13.555441711725953
42
-0.14094109548243461
0
ARC
5
119
100
AcDbEntity
8
0
100
AcDbCircle
10
0
20
0
30
0
40
29.5
100
AcDbArc
50
119.20478208545474
51
150.79521791454528
0
LINE
5
120
100
AcDbEntity
8
0
100
AcDbLine
10
1.1295559623600315
20
32.980662566538861
30
0
11
5.3041809415703556
21
25.75
31
0
0
LINE
5
121
100
AcDbEntity
8
0
100
AcDbLine
10
5.1757140487687749
20
-25.749999999999996
30
0
11
14.394009170484818
21
-25.749999999999993
31
0
0
CIRCLE
5
122
100
AcDbEntity
8
0
100
AcDbCircle
10
30.000142026698839
20
0.033413162158418934
30
0
40
1.5999999999999996
0
ARC
5
123
100
AcDbEntity
8
0
100
AcDbCircle
10
0
20
0
30
0
40
29.499999999999989
100
AcDbArc
50
29.204782085454674
51
60.795217914545269
0
ARC
5
124
100
AcDbEntity
8
0
100
AcDbCircle
10
0
20
0
30
0
40
29.500000000000014
100
AcDbArc
50
299.20478208545478
51
330.79521791454522
0
ARC
5
125
100
AcDbEntity
8
0
100
AcDbCircle
10
0
20
0
30
0
40
33
100
AcDbArc
50
-1.7370958088985977
51
1.7256481391004994
0
ARC
5
126
100
AcDbEntity
8
0
100
AcDbCircle
10
0
20
0
30
0
40
33.000000000000014
100
AcDbArc
50
267.35790500029492
51
271.73415786195352
0
ARC
5
127
100
AcDbEntity
8
0
100
AcDbCircle
10
0
20
0
30
0
40
33.000000000000014
100
AcDbArc
50
88.038441403110383
51
91.65407145646806
0
ARC
5
128
100
AcDbEntity
8
0
100
AcDbCircle
10
0
20
0
30
0
40
33.000000000000007
100
AcDbArc
50
177.48235995997572
51
182.59547367692039
0
ENDSEC
0
SECTION
2
OBJECTS
0
DICTIONARY
5
C
100
AcDbDictionary
3
ACAD_GROUP
350
D
3
ACAD_MLINESTYLE
350
17
0
DICTIONARY
5
D
100
AcDbDictionary
0
DICTIONARY
5
1A
330
C
100
AcDbDictionary
0
DICTIONARY
5
17
100
AcDbDictionary
0
ENDSEC
0
EOF
